<svg width="112" height="59" viewBox="0 0 112 59" fill="none" xmlns="http://www.w3.org/2000/svg">
<g filter="url(#filter0_d)">
<path d="M13.3711 17.5234C13.3711 16.8594 13.1367 16.3516 12.668 16C12.1992 15.6406 11.3555 15.2656 10.1367 14.875C8.91797 14.4766 7.95312 14.0859 7.24219 13.7031C5.30469 12.6562 4.33594 11.2461 4.33594 9.47266C4.33594 8.55078 4.59375 7.73047 5.10938 7.01172C5.63281 6.28516 6.37891 5.71875 7.34766 5.3125C8.32422 4.90625 9.41797 4.70312 10.6289 4.70312C11.8477 4.70312 12.9336 4.92578 13.8867 5.37109C14.8398 5.80859 15.5781 6.42969 16.1016 7.23438C16.6328 8.03906 16.8984 8.95312 16.8984 9.97656H13.3828C13.3828 9.19531 13.1367 8.58984 12.6445 8.16016C12.1523 7.72266 11.4609 7.50391 10.5703 7.50391C9.71094 7.50391 9.04297 7.6875 8.56641 8.05469C8.08984 8.41406 7.85156 8.89062 7.85156 9.48438C7.85156 10.0391 8.12891 10.5039 8.68359 10.8789C9.24609 11.2539 10.0703 11.6055 11.1562 11.9336C13.1562 12.5352 14.6133 13.2812 15.5273 14.1719C16.4414 15.0625 16.8984 16.1719 16.8984 17.5C16.8984 18.9766 16.3398 20.1367 15.2227 20.9805C14.1055 21.8164 12.6016 22.2344 10.7109 22.2344C9.39844 22.2344 8.20312 21.9961 7.125 21.5195C6.04688 21.0352 5.22266 20.375 4.65234 19.5391C4.08984 18.7031 3.80859 17.7344 3.80859 16.6328H7.33594C7.33594 18.5156 8.46094 19.457 10.7109 19.457C11.5469 19.457 12.1992 19.2891 12.668 18.9531C13.1367 18.6094 13.3711 18.1328 13.3711 17.5234ZM24.9023 22.2344C23.043 22.2344 21.5273 21.6641 20.3555 20.5234C19.1914 19.3828 18.6094 17.8633 18.6094 15.9648V15.6367C18.6094 14.3633 18.8555 13.2266 19.3477 12.2266C19.8398 11.2188 20.5352 10.4453 21.4336 9.90625C22.3398 9.35938 23.3711 9.08594 24.5273 9.08594C26.2617 9.08594 27.625 9.63281 28.6172 10.7266C29.6172 11.8203 30.1172 13.3711 30.1172 15.3789V16.7617H22.043C22.1523 17.5898 22.4805 18.2539 23.0273 18.7539C23.582 19.2539 24.2812 19.5039 25.125 19.5039C26.4297 19.5039 27.4492 19.0312 28.1836 18.0859L29.8477 19.9492C29.3398 20.668 28.6523 21.2305 27.7852 21.6367C26.918 22.0352 25.957 22.2344 24.9023 22.2344ZM24.5156 11.8281C23.8438 11.8281 23.2969 12.0547 22.875 12.5078C22.4609 12.9609 22.1953 13.6094 22.0781 14.4531H26.7891V14.1836C26.7734 13.4336 26.5703 12.8555 26.1797 12.4492C25.7891 12.0352 25.2344 11.8281 24.5156 11.8281ZM39.1758 12.4961C38.7148 12.4336 38.3086 12.4023 37.957 12.4023C36.6758 12.4023 35.8359 12.8359 35.4375 13.7031V22H32.0508V9.32031H35.25L35.3438 10.832C36.0234 9.66797 36.9648 9.08594 38.168 9.08594C38.543 9.08594 38.8945 9.13672 39.2227 9.23828L39.1758 12.4961ZM45.7734 17.8633L48.1289 9.32031H51.668L47.3906 22H44.1562L39.8789 9.32031H43.418L45.7734 17.8633ZM56.7422 22H53.3438V9.32031H56.7422V22ZM53.1445 6.03906C53.1445 5.53125 53.3125 5.11328 53.6484 4.78516C53.9922 4.45703 54.457 4.29297 55.043 4.29297C55.6211 4.29297 56.082 4.45703 56.4258 4.78516C56.7695 5.11328 56.9414 5.53125 56.9414 6.03906C56.9414 6.55469 56.7656 6.97656 56.4141 7.30469C56.0703 7.63281 55.6133 7.79688 55.043 7.79688C54.4727 7.79688 54.0117 7.63281 53.6602 7.30469C53.3164 6.97656 53.1445 6.55469 53.1445 6.03906ZM64.8164 19.5039C65.4414 19.5039 65.9492 19.332 66.3398 18.9883C66.7305 18.6445 66.9336 18.1875 66.9492 17.6172H70.125C70.1172 18.4766 69.8828 19.2656 69.4219 19.9844C68.9609 20.6953 68.3281 21.25 67.5234 21.6484C66.7266 22.0391 65.8438 22.2344 64.875 22.2344C63.0625 22.2344 61.6328 21.6602 60.5859 20.5117C59.5391 19.3555 59.0156 17.7617 59.0156 15.7305V15.5078C59.0156 13.5547 59.5352 11.9961 60.5742 10.832C61.6133 9.66797 63.0391 9.08594 64.8516 9.08594C66.4375 9.08594 67.707 9.53906 68.6602 10.4453C69.6211 11.3438 70.1094 12.543 70.125 14.043H66.9492C66.9336 13.3867 66.7305 12.8555 66.3398 12.4492C65.9492 12.0352 65.4336 11.8281 64.793 11.8281C64.0039 11.8281 63.4062 12.1172 63 12.6953C62.6016 13.2656 62.4023 14.1953 62.4023 15.4844V15.8359C62.4023 17.1406 62.6016 18.0781 63 18.6484C63.3984 19.2188 64.0039 19.5039 64.8164 19.5039ZM77.8945 22.2344C76.0352 22.2344 74.5195 21.6641 73.3477 20.5234C72.1836 19.3828 71.6016 17.8633 71.6016 15.9648V15.6367C71.6016 14.3633 71.8477 13.2266 72.3398 12.2266C72.832 11.2188 73.5273 10.4453 74.4258 9.90625C75.332 9.35938 76.3633 9.08594 77.5195 9.08594C79.2539 9.08594 80.6172 9.63281 81.6094 10.7266C82.6094 11.8203 83.1094 13.3711 83.1094 15.3789V16.7617H75.0352C75.1445 17.5898 75.4727 18.2539 76.0195 18.7539C76.5742 19.2539 77.2734 19.5039 78.1172 19.5039C79.4219 19.5039 80.4414 19.0312 81.1758 18.0859L82.8398 19.9492C82.332 20.668 81.6445 21.2305 80.7773 21.6367C79.9102 22.0352 78.9492 22.2344 77.8945 22.2344ZM77.5078 11.8281C76.8359 11.8281 76.2891 12.0547 75.8672 12.5078C75.4531 12.9609 75.1875 13.6094 75.0703 14.4531H79.7812V14.1836C79.7656 13.4336 79.5625 12.8555 79.1719 12.4492C78.7812 12.0352 78.2266 11.8281 77.5078 11.8281Z" fill="#147362"/>
<path d="M13.3711 17.5234C13.3711 16.8594 13.1367 16.3516 12.668 16C12.1992 15.6406 11.3555 15.2656 10.1367 14.875C8.91797 14.4766 7.95312 14.0859 7.24219 13.7031C5.30469 12.6562 4.33594 11.2461 4.33594 9.47266C4.33594 8.55078 4.59375 7.73047 5.10938 7.01172C5.63281 6.28516 6.37891 5.71875 7.34766 5.3125C8.32422 4.90625 9.41797 4.70312 10.6289 4.70312C11.8477 4.70312 12.9336 4.92578 13.8867 5.37109C14.8398 5.80859 15.5781 6.42969 16.1016 7.23438C16.6328 8.03906 16.8984 8.95312 16.8984 9.97656H13.3828C13.3828 9.19531 13.1367 8.58984 12.6445 8.16016C12.1523 7.72266 11.4609 7.50391 10.5703 7.50391C9.71094 7.50391 9.04297 7.6875 8.56641 8.05469C8.08984 8.41406 7.85156 8.89062 7.85156 9.48438C7.85156 10.0391 8.12891 10.5039 8.68359 10.8789C9.24609 11.2539 10.0703 11.6055 11.1562 11.9336C13.1562 12.5352 14.6133 13.2812 15.5273 14.1719C16.4414 15.0625 16.8984 16.1719 16.8984 17.5C16.8984 18.9766 16.3398 20.1367 15.2227 20.9805C14.1055 21.8164 12.6016 22.2344 10.7109 22.2344C9.39844 22.2344 8.20312 21.9961 7.125 21.5195C6.04688 21.0352 5.22266 20.375 4.65234 19.5391C4.08984 18.7031 3.80859 17.7344 3.80859 16.6328H7.33594C7.33594 18.5156 8.46094 19.457 10.7109 19.457C11.5469 19.457 12.1992 19.2891 12.668 18.9531C13.1367 18.6094 13.3711 18.1328 13.3711 17.5234ZM24.9023 22.2344C23.043 22.2344 21.5273 21.6641 20.3555 20.5234C19.1914 19.3828 18.6094 17.8633 18.6094 15.9648V15.6367C18.6094 14.3633 18.8555 13.2266 19.3477 12.2266C19.8398 11.2188 20.5352 10.4453 21.4336 9.90625C22.3398 9.35938 23.3711 9.08594 24.5273 9.08594C26.2617 9.08594 27.625 9.63281 28.6172 10.7266C29.6172 11.8203 30.1172 13.3711 30.1172 15.3789V16.7617H22.043C22.1523 17.5898 22.4805 18.2539 23.0273 18.7539C23.582 19.2539 24.2812 19.5039 25.125 19.5039C26.4297 19.5039 27.4492 19.0312 28.1836 18.0859L29.8477 19.9492C29.3398 20.668 28.6523 21.2305 27.7852 21.6367C26.918 22.0352 25.957 22.2344 24.9023 22.2344ZM24.5156 11.8281C23.8438 11.8281 23.2969 12.0547 22.875 12.5078C22.4609 12.9609 22.1953 13.6094 22.0781 14.4531H26.7891V14.1836C26.7734 13.4336 26.5703 12.8555 26.1797 12.4492C25.7891 12.0352 25.2344 11.8281 24.5156 11.8281ZM39.1758 12.4961C38.7148 12.4336 38.3086 12.4023 37.957 12.4023C36.6758 12.4023 35.8359 12.8359 35.4375 13.7031V22H32.0508V9.32031H35.25L35.3438 10.832C36.0234 9.66797 36.9648 9.08594 38.168 9.08594C38.543 9.08594 38.8945 9.13672 39.2227 9.23828L39.1758 12.4961ZM45.7734 17.8633L48.1289 9.32031H51.668L47.3906 22H44.1562L39.8789 9.32031H43.418L45.7734 17.8633ZM56.7422 22H53.3438V9.32031H56.7422V22ZM53.1445 6.03906C53.1445 5.53125 53.3125 5.11328 53.6484 4.78516C53.9922 4.45703 54.457 4.29297 55.043 4.29297C55.6211 4.29297 56.082 4.45703 56.4258 4.78516C56.7695 5.11328 56.9414 5.53125 56.9414 6.03906C56.9414 6.55469 56.7656 6.97656 56.4141 7.30469C56.0703 7.63281 55.6133 7.79688 55.043 7.79688C54.4727 7.79688 54.0117 7.63281 53.6602 7.30469C53.3164 6.97656 53.1445 6.55469 53.1445 6.03906ZM64.8164 19.5039C65.4414 19.5039 65.9492 19.332 66.3398 18.9883C66.7305 18.6445 66.9336 18.1875 66.9492 17.6172H70.125C70.1172 18.4766 69.8828 19.2656 69.4219 19.9844C68.9609 20.6953 68.3281 21.25 67.5234 21.6484C66.7266 22.0391 65.8438 22.2344 64.875 22.2344C63.0625 22.2344 61.6328 21.6602 60.5859 20.5117C59.5391 19.3555 59.0156 17.7617 59.0156 15.7305V15.5078C59.0156 13.5547 59.5352 11.9961 60.5742 10.832C61.6133 9.66797 63.0391 9.08594 64.8516 9.08594C66.4375 9.08594 67.707 9.53906 68.6602 10.4453C69.6211 11.3438 70.1094 12.543 70.125 14.043H66.9492C66.9336 13.3867 66.7305 12.8555 66.3398 12.4492C65.9492 12.0352 65.4336 11.8281 64.793 11.8281C64.0039 11.8281 63.4062 12.1172 63 12.6953C62.6016 13.2656 62.4023 14.1953 62.4023 15.4844V15.8359C62.4023 17.1406 62.6016 18.0781 63 18.6484C63.3984 19.2188 64.0039 19.5039 64.8164 19.5039ZM77.8945 22.2344C76.0352 22.2344 74.5195 21.6641 73.3477 20.5234C72.1836 19.3828 71.6016 17.8633 71.6016 15.9648V15.6367C71.6016 14.3633 71.8477 13.2266 72.3398 12.2266C72.832 11.2188 73.5273 10.4453 74.4258 9.90625C75.332 9.35938 76.3633 9.08594 77.5195 9.08594C79.2539 9.08594 80.6172 9.63281 81.6094 10.7266C82.6094 11.8203 83.1094 13.3711 83.1094 15.3789V16.7617H75.0352C75.1445 17.5898 75.4727 18.2539 76.0195 18.7539C76.5742 19.2539 77.2734 19.5039 78.1172 19.5039C79.4219 19.5039 80.4414 19.0312 81.1758 18.0859L82.8398 19.9492C82.332 20.668 81.6445 21.2305 80.7773 21.6367C79.9102 22.0352 78.9492 22.2344 77.8945 22.2344ZM77.5078 11.8281C76.8359 11.8281 76.2891 12.0547 75.8672 12.5078C75.4531 12.9609 75.1875 13.6094 75.0703 14.4531H79.7812V14.1836C79.7656 13.4336 79.5625 12.8555 79.1719 12.4492C78.7812 12.0352 78.2266 11.8281 77.5078 11.8281Z" fill="url(#paint0_linear)"/>
</g>
<g filter="url(#filter1_d)">
<path d="M70.8125 43.0781L73.1094 30.9375H76.6133L72.8281 48H69.2891L66.5117 36.5859L63.7344 48H60.1953L56.4102 30.9375H59.9141L62.2227 43.0547L65.0352 30.9375H68.0117L70.8125 43.0781ZM83.7617 48.2344C81.9023 48.2344 80.3867 47.6641 79.2148 46.5234C78.0508 45.3828 77.4688 43.8633 77.4688 41.9648V41.6367C77.4688 40.3633 77.7148 39.2266 78.207 38.2266C78.6992 37.2188 79.3945 36.4453 80.293 35.9062C81.1992 35.3594 82.2305 35.0859 83.3867 35.0859C85.1211 35.0859 86.4844 35.6328 87.4766 36.7266C88.4766 37.8203 88.9766 39.3711 88.9766 41.3789V42.7617H80.9023C81.0117 43.5898 81.3398 44.2539 81.8867 44.7539C82.4414 45.2539 83.1406 45.5039 83.9844 45.5039C85.2891 45.5039 86.3086 45.0312 87.043 44.0859L88.707 45.9492C88.1992 46.668 87.5117 47.2305 86.6445 47.6367C85.7773 48.0352 84.8164 48.2344 83.7617 48.2344ZM83.375 37.8281C82.7031 37.8281 82.1562 38.0547 81.7344 38.5078C81.3203 38.9609 81.0547 39.6094 80.9375 40.4531H85.6484V40.1836C85.6328 39.4336 85.4297 38.8555 85.0391 38.4492C84.6484 38.0352 84.0938 37.8281 83.375 37.8281ZM102.336 41.7773C102.336 43.8086 101.902 45.3945 101.035 46.5352C100.168 47.668 98.957 48.2344 97.4023 48.2344C96.0273 48.2344 94.9297 47.707 94.1094 46.6523L93.957 48H90.9102V30H94.2969V36.457C95.0781 35.543 96.1055 35.0859 97.3789 35.0859C98.9258 35.0859 100.137 35.6562 101.012 36.7969C101.895 37.9297 102.336 39.5273 102.336 41.5898V41.7773ZM98.9492 41.5312C98.9492 40.25 98.7461 39.3164 98.3398 38.7305C97.9336 38.1367 97.3281 37.8398 96.5234 37.8398C95.4453 37.8398 94.7031 38.2812 94.2969 39.1641V44.168C94.7109 45.0586 95.4609 45.5039 96.5469 45.5039C97.6406 45.5039 98.3594 44.9648 98.7031 43.8867C98.8672 43.3711 98.9492 42.5859 98.9492 41.5312Z" fill="#2065A4"/>
<path d="M70.8125 43.0781L73.1094 30.9375H76.6133L72.8281 48H69.2891L66.5117 36.5859L63.7344 48H60.1953L56.4102 30.9375H59.9141L62.2227 43.0547L65.0352 30.9375H68.0117L70.8125 43.0781ZM83.7617 48.2344C81.9023 48.2344 80.3867 47.6641 79.2148 46.5234C78.0508 45.3828 77.4688 43.8633 77.4688 41.9648V41.6367C77.4688 40.3633 77.7148 39.2266 78.207 38.2266C78.6992 37.2188 79.3945 36.4453 80.293 35.9062C81.1992 35.3594 82.2305 35.0859 83.3867 35.0859C85.1211 35.0859 86.4844 35.6328 87.4766 36.7266C88.4766 37.8203 88.9766 39.3711 88.9766 41.3789V42.7617H80.9023C81.0117 43.5898 81.3398 44.2539 81.8867 44.7539C82.4414 45.2539 83.1406 45.5039 83.9844 45.5039C85.2891 45.5039 86.3086 45.0312 87.043 44.0859L88.707 45.9492C88.1992 46.668 87.5117 47.2305 86.6445 47.6367C85.7773 48.0352 84.8164 48.2344 83.7617 48.2344ZM83.375 37.8281C82.7031 37.8281 82.1562 38.0547 81.7344 38.5078C81.3203 38.9609 81.0547 39.6094 80.9375 40.4531H85.6484V40.1836C85.6328 39.4336 85.4297 38.8555 85.0391 38.4492C84.6484 38.0352 84.0938 37.8281 83.375 37.8281ZM102.336 41.7773C102.336 43.8086 101.902 45.3945 101.035 46.5352C100.168 47.668 98.957 48.2344 97.4023 48.2344C96.0273 48.2344 94.9297 47.707 94.1094 46.6523L93.957 48H90.9102V30H94.2969V36.457C95.0781 35.543 96.1055 35.0859 97.3789 35.0859C98.9258 35.0859 100.137 35.6562 101.012 36.7969C101.895 37.9297 102.336 39.5273 102.336 41.5898V41.7773ZM98.9492 41.5312C98.9492 40.25 98.7461 39.3164 98.3398 38.7305C97.9336 38.1367 97.3281 37.8398 96.5234 37.8398C95.4453 37.8398 94.7031 38.2812 94.2969 39.1641V44.168C94.7109 45.0586 95.4609 45.5039 96.5469 45.5039C97.6406 45.5039 98.3594 44.9648 98.7031 43.8867C98.8672 43.3711 98.9492 42.5859 98.9492 41.5312Z" fill="url(#paint1_linear)"/>
</g>
<defs>
<filter id="filter0_d" x="1.80859" y="4.29297" width="83.3008" height="21.9414" filterUnits="userSpaceOnUse" color-interpolation-filters="sRGB">
<feFlood flood-opacity="0" result="BackgroundImageFix"/>
<feColorMatrix in="SourceAlpha" type="matrix" values="0 0 0 0 0 0 0 0 0 0 0 0 0 0 0 0 0 0 127 0"/>
<feOffset dy="2"/>
<feGaussianBlur stdDeviation="1"/>
<feColorMatrix type="matrix" values="0 0 0 0 0 0 0 0 0 0 0 0 0 0 0 0 0 0 0.25 0"/>
<feBlend mode="normal" in2="BackgroundImageFix" result="effect1_dropShadow"/>
<feBlend mode="normal" in="SourceGraphic" in2="effect1_dropShadow" result="shape"/>
</filter>
<filter id="filter1_d" x="54.4102" y="30" width="49.9258" height="22.2344" filterUnits="userSpaceOnUse" color-interpolation-filters="sRGB">
<feFlood flood-opacity="0" result="BackgroundImageFix"/>
<feColorMatrix in="SourceAlpha" type="matrix" values="0 0 0 0 0 0 0 0 0 0 0 0 0 0 0 0 0 0 127 0"/>
<feOffset dy="2"/>
<feGaussianBlur stdDeviation="1"/>
<feColorMatrix type="matrix" values="0 0 0 0 0 0 0 0 0 0 0 0 0 0 0 0 0 0 0.25 0"/>
<feBlend mode="normal" in2="BackgroundImageFix" result="effect1_dropShadow"/>
<feBlend mode="normal" in="SourceGraphic" in2="effect1_dropShadow" result="shape"/>
</filter>
<linearGradient id="paint0_linear" x1="43.5" y1="0" x2="43.5" y2="28" gradientUnits="userSpaceOnUse">
<stop stop-color="#12EDAB"/>
<stop offset="1" stop-color="white" stop-opacity="0"/>
</linearGradient>
<linearGradient id="paint1_linear" x1="80" y1="26" x2="80" y2="54" gradientUnits="userSpaceOnUse">
<stop stop-color="#2D8C15"/>
<stop offset="1" stop-color="white" stop-opacity="0"/>
</linearGradient>
</defs>
</svg>
