<svg width="16280" height="17394" viewBox="0 0 16280 17394" fill="none" xmlns="http://www.w3.org/2000/svg">
<g clip-path="url(#clip0)">
<rect width="16280" height="17394" rx="18" fill="white"/>
<g clip-path="url(#clip1)">
<path d="M3794.46 17146.8C5786.25 17146.8 7400.92 15550.2 7400.92 13580.7C7400.92 11611.3 5786.25 10014.7 3794.46 10014.7C1802.67 10014.7 188 11611.3 188 13580.7C188 15550.2 1802.67 17146.8 3794.46 17146.8Z" fill="#F2F2F2"/>
<path d="M8157.11 15162.5C6394.16 15162.5 4685.74 14558 3322.95 13452.2C1960.16 12346.3 1027.32 10807.4 683.384 9097.68C339.443 7387.97 605.68 5613.24 1436.73 4075.87C2267.78 2538.5 3612.22 1333.61 5240.98 666.515C6869.74 -0.582618 8682.04 -88.6202 10369.1 417.403C12056.1 923.427 13513.5 1992.2 14493 3441.62C15472.4 4891.04 15913.3 6631.43 15740.5 8366.24C15567.7 10101.1 14791.9 11722.9 13545.3 12955.6C12839.4 13657.4 11999.7 14213.9 11074.8 14592.7C10149.9 14971.5 9158.2 15165.2 8157.11 15162.5V15162.5ZM8157.11 150.516C3987.46 150.516 595.181 3504.77 595.181 7627.72C595.181 11750.7 3987.46 15104.9 8157.11 15104.9C12326.8 15104.9 15719 11750.7 15719 7627.72C15719 3504.77 12326.8 150.516 8157.11 150.516V150.516Z" fill="#2F2E41"/>
<path d="M12127.1 10012.6L12126.3 10013L8370.57 12080.9L4257.96 10047.6L4187.09 10012.6L4400.53 5791.59L8114.42 3174.56L8155.41 3199.89L11999.1 5580.54L12127.1 10012.6Z" fill="#6C63FF"/>
<path opacity="0.3" d="M12126.3 10013L8370.57 12080.9L4257.96 10047.6L7900.98 7522.21L12126.3 10013Z" fill="black"/>
<path opacity="0.1" d="M12127.1 10012.6L7900.98 7522.21L8155.41 3199.9L11999.1 5580.54L12127.1 10012.6Z" fill="black"/>
<path d="M4345.86 7094.08L4324.99 7064.87L8080.34 4443.89L12047.3 6903.21L12028.1 6933.52L8081.5 4486.83L4345.86 7094.08Z" fill="#F2F2F2"/>
<path d="M4273.07 8528.08L4252.77 8498.51L7989.06 5990.26L7998.85 5995.76L12050.7 8266.43L12032.8 8297.55L7990.78 6032.34L4273.07 8528.08Z" fill="#F2F2F2"/>
<path d="M5698.65 10770.4L5679.6 10740L9445.15 8432.85V4009.93H9481.31V8452.76L5698.65 10770.4Z" fill="#F2F2F2"/>
<path d="M7176.62 11501L7157.41 11470.7L10783.2 9222.04V4838.65H10819.4V9241.83L7176.62 11501Z" fill="#F2F2F2"/>
<path d="M10769.5 10770.8L6552.73 8454.15L6553.33 8443.01L6775.31 4104.57L6811.42 4106.39L6590.01 8433.69L10787.1 10739.6L10769.5 10770.8Z" fill="#F2F2F2"/>
<path d="M9442.86 11501.7L5273.4 9341.22L5274.05 9329.75L5519.84 4989.15L5555.95 4991.15L5310.84 9320.25L9459.66 11470L9442.86 11501.7Z" fill="#F2F2F2"/>
<path d="M12839.7 3170.17C13642.8 3170.17 14293.9 2526.38 14293.9 1732.24C14293.9 938.097 13642.8 294.317 12839.7 294.317C12036.6 294.317 11385.5 938.097 11385.5 1732.24C11385.5 2526.38 12036.6 3170.17 12839.7 3170.17Z" fill="#3F3D56"/>
</g>
</g>
<defs>
<clipPath id="clip0">
<rect width="16280" height="17394" rx="18" fill="white"/>
</clipPath>
<clipPath id="clip1">
<rect width="25856" height="17301" fill="white" transform="translate(188 93)"/>
</clipPath>
</defs>
</svg>
